<svg width="1280" height="360" viewBox="0 0 1280 360" fill="none" xmlns="http://www.w3.org/2000/svg">
  <defs>
    <linearGradient id="bg" x1="80" y1="24" x2="1200" y2="336" gradientUnits="userSpaceOnUse">
      <stop stop-color="#0B1F3A"/>
      <stop offset="0.55" stop-color="#1B4072"/>
      <stop offset="1" stop-color="#2D64B1"/>
    </linearGradient>
    <linearGradient id="glow" x1="950" y1="20" x2="1210" y2="280" gradientUnits="userSpaceOnUse">
      <stop stop-color="#FFFFFF" stop-opacity="0.25"/>
      <stop offset="1" stop-color="#FFFFFF" stop-opacity="0"/>
    </linearGradient>
    <linearGradient id="wave" x1="170" y1="250" x2="1090" y2="250" gradientUnits="userSpaceOnUse">
      <stop stop-color="#7BB8FF" stop-opacity="0"/>
      <stop offset="0.5" stop-color="#E1F0FF"/>
      <stop offset="1" stop-color="#7BB8FF" stop-opacity="0"/>
    </linearGradient>
  </defs>

  <rect x="20" y="20" width="1240" height="320" rx="30" fill="url(#bg)"/>
  <rect x="20.75" y="20.75" width="1238.5" height="318.5" rx="29.25" stroke="#9CC8FF" stroke-opacity="0.35" stroke-width="1.5"/>

  <rect x="60" y="56" width="1160" height="248" rx="22" fill="#FFFFFF" fill-opacity="0.03"/>
  <rect x="60" y="56" width="1160" height="248" rx="22" stroke="#FFFFFF" stroke-opacity="0.08"/>

  <path d="M60 110H1220M60 164H1220M60 218H1220M60 272H1220" stroke="#FFFFFF" stroke-opacity="0.06"/>
  <path d="M230 56V304M400 56V304M570 56V304M740 56V304M910 56V304M1080 56V304" stroke="#FFFFFF" stroke-opacity="0.06"/>

  <circle cx="1098" cy="108" r="92" fill="url(#glow)"/>

  <rect x="94" y="102" width="72" height="72" rx="18" fill="#FFFFFF" fill-opacity="0.16"/>
  <rect x="118" y="114" width="10" height="48" rx="5" fill="#9FD0FF"/>
  <rect x="132" y="126" width="10" height="24" rx="5" fill="#E9F5FF"/>
  <rect x="146" y="108" width="10" height="60" rx="5" fill="#BFE0FF"/>

  <text x="188" y="122" fill="#DCEEFF" font-family="Segoe UI, Arial, sans-serif" font-size="20" font-weight="700" letter-spacing="0.08em">
    STARMO AUDIO ASSISTANT
  </text>
  <text x="188" y="170" fill="#FFFFFF" font-family="Segoe UI, Arial, sans-serif" font-size="44" font-weight="700">
    Professional Windows Audio Scheduler
  </text>
  <text x="188" y="208" fill="#D6E9FF" font-family="Segoe UI, Arial, sans-serif" font-size="22" font-weight="500">
    Cross-day timing · Fade transitions · Tray-first reliability
  </text>

  <path d="M170 252C206 252 206 238 242 238C278 238 278 266 314 266C350 266 350 240 386 240C422 240 422 260 458 260C494 260 494 244 530 244C566 244 566 262 602 262C638 262 638 246 674 246C710 246 710 258 746 258C782 258 782 242 818 242C854 242 854 266 890 266C926 266 926 238 962 238C998 238 998 252 1034 252C1070 252 1070 246 1090 246" stroke="url(#wave)" stroke-width="3" stroke-linecap="round"/>

  <text x="188" y="294" fill="#C4DDFF" font-family="Segoe UI, Arial, sans-serif" font-size="16">
    Built with .NET 8 · WPF · NAudio
  </text>
</svg>
